<?xml version="1.0" encoding="UTF-8" standalone="no"?>
<!DOCTYPE svg PUBLIC "-//W3C//DTD SVG 1.1//EN"
 "http://www.w3.org/Graphics/SVG/1.1/DTD/svg11.dtd">
<!-- Generated by graphviz version 2.40.1 (20161225.0304)
 -->
<!-- Title: %3 Pages: 1 -->
<svg width="616pt" height="332pt"
 viewBox="0.00 0.00 616.09 332.00" xmlns="http://www.w3.org/2000/svg" xmlns:xlink="http://www.w3.org/1999/xlink">
<g id="graph0" class="graph" transform="scale(1 1) rotate(0) translate(4 328)">
<title>%3</title>
<polygon fill="#ffffff" stroke="transparent" points="-4,4 -4,-328 612.0865,-328 612.0865,4 -4,4"/>
<!-- crate_graph* -->
<g id="node1" class="node">
<title>crate_graph*</title>
<ellipse fill="none" stroke="#000000" cx="95.5928" cy="-18" rx="56.59" ry="18"/>
<text text-anchor="middle" x="95.5928" y="-14.3" font-family="Times,serif" font-size="14.00" fill="#000000">crate_graph*</text>
</g>
<!-- dep_graph* -->
<g id="node2" class="node">
<title>dep_graph*</title>
<ellipse fill="none" stroke="#000000" cx="96.5928" cy="-90" rx="51.9908" ry="18"/>
<text text-anchor="middle" x="96.5928" y="-86.3" font-family="Times,serif" font-size="14.00" fill="#000000">dep_graph*</text>
</g>
<!-- dep_graph*&#45;&gt;crate_graph* -->
<g id="edge7" class="edge">
<title>dep_graph*:cargo_metadata*&#45;&gt;crate_graph*</title>
<path fill="none" stroke="#000000" d="M96.3405,-71.8314C96.2336,-64.131 96.1064,-54.9743 95.9875,-46.4166"/>
<polygon fill="#000000" stroke="#000000" points="99.4872,-46.3637 95.8486,-36.4133 92.4879,-46.4609 99.4872,-46.3637"/>
</g>
<!-- fetch_package_data -->
<g id="node3" class="node">
<title>fetch_package_data</title>
<ellipse fill="none" stroke="#000000" cx="80.5928" cy="-306" rx="80.6858" ry="18"/>
<text text-anchor="middle" x="80.5928" y="-302.3" font-family="Times,serif" font-size="14.00" fill="#000000">fetch_package_data</text>
</g>
<!-- find_dep_files -->
<g id="node4" class="node">
<title>find_dep_files</title>
<ellipse fill="none" stroke="#000000" cx="157.5928" cy="-234" rx="61.99" ry="18"/>
<text text-anchor="middle" x="157.5928" y="-230.3" font-family="Times,serif" font-size="14.00" fill="#000000">find_dep_files</text>
</g>
<!-- fetch_package_data&#45;&gt;find_dep_files -->
<g id="edge5" class="edge">
<title>fetch_package_data&#45;&gt;find_dep_files</title>
<path fill="none" stroke="#000000" d="M99.6266,-288.2022C109.3025,-279.1546 121.2045,-268.0255 131.701,-258.2105"/>
<polygon fill="#000000" stroke="#000000" points="134.13,-260.731 139.0438,-251.3446 129.349,-255.6181 134.13,-260.731"/>
</g>
<!-- run_repo_tasks -->
<g id="node8" class="node">
<title>run_repo_tasks</title>
<ellipse fill="none" stroke="#000000" cx="157.5928" cy="-162" rx="64.189" ry="18"/>
<text text-anchor="middle" x="157.5928" y="-158.3" font-family="Times,serif" font-size="14.00" fill="#000000">run_repo_tasks</text>
</g>
<!-- find_dep_files&#45;&gt;run_repo_tasks -->
<g id="edge2" class="edge">
<title>find_dep_files&#45;&gt;run_repo_tasks</title>
<path fill="none" stroke="#000000" d="M157.5928,-215.8314C157.5928,-208.131 157.5928,-198.9743 157.5928,-190.4166"/>
<polygon fill="#000000" stroke="#000000" points="161.0929,-190.4132 157.5928,-180.4133 154.0929,-190.4133 161.0929,-190.4132"/>
</g>
<!-- find_git_refs -->
<g id="node5" class="node">
<title>find_git_refs</title>
<ellipse fill="none" stroke="#000000" cx="234.5928" cy="-306" rx="55.7903" ry="18"/>
<text text-anchor="middle" x="234.5928" y="-302.3" font-family="Times,serif" font-size="14.00" fill="#000000">find_git_refs</text>
</g>
<!-- find_git_refs&#45;&gt;find_dep_files -->
<g id="edge1" class="edge">
<title>find_git_refs&#45;&gt;find_dep_files</title>
<path fill="none" stroke="#000000" d="M216.3449,-288.937C206.5394,-279.7682 194.2838,-268.3084 183.5066,-258.2311"/>
<polygon fill="#000000" stroke="#000000" points="185.6714,-255.4635 175.9766,-251.19 180.8904,-260.5765 185.6714,-255.4635"/>
</g>
<!-- github_metadata -->
<g id="node6" class="node">
<title>github_metadata</title>
<ellipse fill="none" stroke="#000000" cx="377.5928" cy="-306" rx="69.5877" ry="18"/>
<text text-anchor="middle" x="377.5928" y="-302.3" font-family="Times,serif" font-size="14.00" fill="#000000">github_metadata</text>
</g>
<!-- postprocess -->
<g id="node7" class="node">
<title>postprocess</title>
<ellipse fill="none" stroke="#000000" cx="219.5928" cy="-90" rx="51.9908" ry="18"/>
<text text-anchor="middle" x="219.5928" y="-86.3" font-family="Times,serif" font-size="14.00" fill="#000000">postprocess</text>
</g>
<!-- save_to_db -->
<g id="node10" class="node">
<title>save_to_db</title>
<ellipse fill="none" stroke="#000000" cx="220.5928" cy="-18" rx="50.8918" ry="18"/>
<text text-anchor="middle" x="220.5928" y="-14.3" font-family="Times,serif" font-size="14.00" fill="#000000">save_to_db</text>
</g>
<!-- postprocess&#45;&gt;save_to_db -->
<g id="edge4" class="edge">
<title>postprocess&#45;&gt;save_to_db</title>
<path fill="none" stroke="#000000" d="M219.8452,-71.8314C219.9521,-64.131 220.0793,-54.9743 220.1982,-46.4166"/>
<polygon fill="#000000" stroke="#000000" points="223.6978,-46.4609 220.3371,-36.4133 216.6985,-46.3637 223.6978,-46.4609"/>
</g>
<!-- run_repo_tasks&#45;&gt;dep_graph* -->
<g id="edge6" class="edge">
<title>run_repo_tasks&#45;&gt;dep_graph*:cargo_metadata*</title>
<path fill="none" stroke="#000000" d="M142.5142,-144.2022C135.0721,-135.4182 125.9677,-124.672 117.8339,-115.0714"/>
<polygon fill="#000000" stroke="#000000" points="120.4222,-112.712 111.2876,-107.3446 115.0813,-117.2369 120.4222,-112.712"/>
</g>
<!-- run_repo_tasks&#45;&gt;postprocess -->
<g id="edge3" class="edge">
<title>run_repo_tasks&#45;&gt;postprocess</title>
<path fill="none" stroke="#000000" d="M172.9187,-144.2022C180.4828,-135.4182 189.7364,-124.672 198.0036,-115.0714"/>
<polygon fill="#000000" stroke="#000000" points="200.7842,-117.2061 204.6572,-107.3446 195.4798,-112.6385 200.7842,-117.2061"/>
</g>
<!-- rust_changelog* -->
<g id="node9" class="node">
<title>rust_changelog*</title>
<ellipse fill="none" stroke="#000000" cx="536.5928" cy="-234" rx="68.7879" ry="18"/>
<text text-anchor="middle" x="536.5928" y="-230.3" font-family="Times,serif" font-size="14.00" fill="#000000">rust_changelog*</text>
</g>
<!-- cargo_metadata* -->
<g id="node11" class="node">
<title>cargo_metadata*</title>
<ellipse fill="none" stroke="#000000" cx="536.5928" cy="-306" rx="71.4873" ry="18"/>
<text text-anchor="middle" x="536.5928" y="-302.3" font-family="Times,serif" font-size="14.00" fill="#000000">cargo_metadata*</text>
</g>
<!-- cargo_metadata*&#45;&gt;rust_changelog* -->
<g id="edge8" class="edge">
<title>cargo_metadata*&#45;&gt;rust_changelog*</title>
<path fill="none" stroke="#000000" d="M536.5928,-287.8314C536.5928,-280.131 536.5928,-270.9743 536.5928,-262.4166"/>
<polygon fill="#000000" stroke="#000000" points="540.0929,-262.4132 536.5928,-252.4133 533.0929,-262.4133 540.0929,-262.4132"/>
</g>
</g>
</svg>
